# xmcd
#
# Track frame offsets: 
#        182
#        27477
#        44165
#        69595
#        86825
#        115450
#        141475
#        163247
#
# Disc length: 2335 seconds
#
# Revision: 10
# Processed by: cddbd v1.5.2PL0 Copyright (c) Steve Scherf et al.
# Submitted via: ExactAudioCopy v0.95b4
#
DISCID=7f091d08
DTITLE=Donald Fagen - The Nightfly
DYEAR=1982
DGENRE=Rock
TTITLE0=Donald Fagen - I.G.Y.
TTITLE1=Green Flower Street
TTITLE2=Ruby Baby
TTITLE3=Maxine
TTITLE4=New Frontier
TTITLE5=The Nightfly
TTITLE6=The Goodbye Look
TTITLE7=Walk Between Raindrops
EXTD=
EXTT0=
EXTT1=
EXTT2=
EXTT3=
EXTT4=
EXTT5=
EXTT6=
EXTT7=
PLAYORDER=
